Coordinates
version=1
nRows=14
nColumns=40
inDegrees=yes

Units are S.I. units (second, meters, Newtons, ...)
Angles are in degrees.

endheader
time	pelvis_tilt	pelvis_list	pelvis_rotation	pelvis_tx	pelvis_ty	pelvis_tz	hip_flexion_r	hip_adduction_r	hip_rotation_r	knee_angle_r	knee_angle_r_beta	ankle_angle_r	subtalar_angle_r	mtp_angle_r	hip_flexion_l	hip_adduction_l	hip_rotation_l	knee_angle_l	knee_angle_l_beta	ankle_angle_l	subtalar_angle_l	mtp_angle_l	lumbar_extension	lumbar_bending	lumbar_rotation	arm_flex_r	arm_add_r	arm_rot_r	elbow_flex_r	pro_sup_r	wrist_flex_r	wrist_dev_r	arm_flex_l	arm_add_l	arm_rot_l	elbow_flex_l	pro_sup_l	wrist_flex_l	wrist_dev_l
      0.74000000	     -0.60847725	      3.12433795	     -8.87718859	      0.02551230	      0.93179410	     -1.45237834	    -14.43788446	     -8.33987370	    -20.92289410	    -15.25693153	     -0.26628369	     10.68120772	     12.11737155	    -16.25225109	     23.85840799	      5.70863414	     19.75146703	    -10.37839953	     -0.18113724	     -1.41588471	      1.37261427	      6.53014970	     -2.13420478	     -4.66595081	     14.03611908	      8.36959937	    -15.65344220	    -11.75802357	     37.50027851	     89.95437384	      0.00000000	      0.00000000	    -23.93825695	      4.69728287	     -2.54992498	     10.57096963	     89.95437384	      0.00000000	      0.00000000
      0.75000000	      0.32825608	      3.90603205	     -9.45918322	      0.04104253	      0.93185562	     -1.45522416	    -15.73535090	    -10.20231723	    -21.21898986	    -16.23105411	     -0.28328534	      9.62351420	     12.79367512	    -16.38756896	     22.56705608	      4.59207866	     20.01914464	    -11.51463606	     -0.20096831	     -0.69427616	      3.54796311	      6.22776402	     -2.62561228	     -5.51520300	     14.75994805	      7.85990098	    -15.67049152	    -12.57445102	     38.22397054	     89.95437384	      0.00000000	      0.00000000	    -23.94400613	      4.84027585	     -4.24590642	      9.97753928	     89.95437384	      0.00000000	      0.00000000
      0.76000000	      0.41941547	      4.02399090	     -9.48728034	      0.05618691	      0.93070534	     -1.45841973	    -16.22689905	    -10.89732528	    -20.75840927	    -17.24897893	     -0.30105147	      8.71496763	     12.31050405	    -15.89325294	     22.37355148	      4.26393790	     19.78275613	    -12.80002278	     -0.22340254	     -1.53561679	      3.78919772	      6.19427768	     -2.31408610	     -5.51723629	     14.69469868	      7.54477226	    -15.75258552	    -12.58969383	     38.51862028	     89.95437384	      0.00000000	      0.00000000	    -24.28996084	      4.79212170	     -4.44675648	      9.93459634	     89.95437384	      0.00000000	      0.00000000
      0.77000000	      1.15785750	      4.85225032	     -9.70013367	      0.07211322	      0.93083856	     -1.46207710	    -17.29795163	    -12.81038707	    -21.58439136	    -18.35657182	     -0.32038262	      7.39800197	     13.23184935	    -15.91073772	     21.08100518	      3.07713304	     21.02239483	    -12.65845842	     -0.22093178	     -5.32712596	      4.88297008	      6.58503747	     -2.52819862	     -6.36713068	     14.79238667	      7.15321758	    -15.66233843	    -13.03900289	     38.84605708	     89.95437384	      0.00000000	      0.00000000	    -24.38852337	      4.88109657	     -5.07293299	      9.70387604	     89.95437384	      0.00000000	      0.00000000
      0.78000000	      1.42425115	      5.53268128	     -9.57837103	      0.08738964	      0.93051404	     -1.46612778	    -17.74353433	    -14.32607803	    -21.95329192	    -19.71212322	     -0.34404145	      5.83613045	     13.48816755	    -15.58971896	     20.51012480	      2.09521868	     20.71390351	    -12.86340608	     -0.22450879	     -7.91278965	      4.28262756	      6.23940536	     -2.30965674	     -6.98114575	     14.62143990	      6.77197111	    -15.54474886	    -13.47892026	     38.97499866	     89.95437384	      0.00000000	      0.00000000	    -24.48849101	      5.02177371	     -6.08655864	      9.63025826	     89.95437384	      0.00000000	      0.00000000
      0.79000000	      1.49625255	      6.20442788	     -9.32194985	      0.10241564	      0.92995809	     -1.47068570	    -17.75666319	    -15.87256746	    -22.47325892	    -21.50087778	     -0.37526111	      3.97371805	     13.73415270	    -16.14445292	     20.60914873	      1.24962169	     20.61225175	    -14.07057316	     -0.24557783	    -11.09969684	      5.00908521	     -5.76392866	     -1.93841565	     -7.52140203	     14.21001963	      6.43778644	    -15.37718816	    -13.87702835	     39.03322341	     89.95437384	      0.00000000	      0.00000000	    -24.39628319	      5.05784551	     -6.22532352	      9.47279810	     89.95437384	      0.00000000	      0.00000000
      0.80000000	      1.53659040	      6.77142463	     -8.88818944	      0.11714220	      0.92970467	     -1.47528015	    -17.62178707	    -17.13795811	    -22.70042292	    -23.45581404	     -0.40938118	      1.87860196	     12.75391521	    -15.18137675	     21.18823083	      0.61510471	     20.45900525	    -16.88288365	     -0.29466191	    -10.12273550	      5.12018475	     -5.79428389	     -1.60716066	     -7.97956489	     13.65199989	      6.16020116	    -15.24944563	    -14.11864863	     38.89494750	     89.95437384	      0.00000000	      0.00000000	    -24.17266263	      5.14261174	     -6.80476851	      9.20248059	     89.95437384	      0.00000000	      0.00000000
      0.81000000	      1.26325803	      7.29151221	     -8.29400857	      0.13138073	      0.92930270	     -1.47998407	    -16.82817623	    -18.36419820	    -23.04288768	    -25.89808634	     -0.45200688	     -0.58014110	     11.94796980	    -14.15938473	     22.08416814	     -0.18883071	     19.61026392	    -19.49814834	     -0.34030689	     -8.75007530	      4.98646670	     -5.85235677	     -1.01206217	     -8.35323414	     13.00602381	      5.78101128	    -14.97972896	    -14.62943997	     38.74477251	     89.95437384	      0.00000000	      0.00000000	    -23.76840644	      5.29166080	     -7.33076360	      8.98889629	     89.95437384	      0.00000000	      0.00000000
      0.82000000	      0.36003390	      8.02773937	     -7.44714704	      0.14486296	      0.92814295	     -1.48541860	    -14.93112427	    -19.87903737	    -23.40428727	    -29.11287575	     -0.50811554	     -3.23600855	     11.47505256	    -13.08504932	     23.38633633	     -1.67337868	     17.55136505	    -21.11971422	     -0.36860855	     -7.82739852	      6.71607427	     -5.55680686	      0.20091873	     -8.86663271	     12.35691937	      5.19767916	    -14.62049124	    -15.67641348	     38.67808520	     89.95437384	      0.00000000	      0.00000000	    -23.36063615	      5.62450619	     -8.60469261	      9.09602989	     89.95437384	      0.00000000	      0.00000000
      0.83000000	      0.12104096	      8.82421883	     -6.82168395	      0.15865893	      0.92834288	     -1.49017208	    -13.74352864	    -21.42670818	    -23.43883992	    -31.90193020	     -0.55679372	     -6.46999609	     10.33188698	    -11.90373804	     23.43851960	     -3.36423936	     15.79874156	    -21.95117960	     -0.38312036	     -6.67701246	      9.19659163	     -4.98880627	      0.70156154	     -9.60526938	     11.77255623	      4.68221714	    -14.38322355	    -15.98236566	     38.48687074	     89.95437384	      0.00000000	      0.00000000	    -22.81247759	      6.04256355	    -10.00934235	      9.30649347	     89.95437384	      0.00000000	      0.00000000
      0.84000000	      0.12648919	      9.29793798	     -6.31440546	      0.17235254	      0.92912583	     -1.49415565	    -12.76632700	    -22.45442446	    -22.96514884	    -34.36134739	     -0.59971865	    -10.17991277	      8.67051591	    -10.76944644	     23.07626584	     -4.43088903	     15.03900798	    -22.89767158	     -0.39963976	     -5.22556277	      9.13623033	     -4.99394216	      0.82815514	    -10.07098627	     11.16422957	      4.24502934	    -14.13268470	    -16.19477128	     38.27820369	     89.95437384	      0.00000000	      0.00000000	    -21.94471917	      6.32125553	    -10.16936346	      9.18931415	     89.95437384	      0.00000000	      0.00000000
      0.85000000	      0.01098618	     10.07938337	     -5.92395046	      0.18547328	      0.92998729	     -1.49798506	    -11.31456546	    -23.72945371	    -21.93408464	    -37.02010594	     -0.64612274	    -13.64316205	      6.28857066	     -9.67330992	     22.56457235	     -5.94196850	     14.08123078	    -23.16040380	     -0.40422530	     -4.02262264	     10.04118027	     -4.71076921	      1.07535320	    -10.88155118	     10.66884582	      3.83342411	    -13.77009821	    -16.49269796	     37.96946726	     89.95437384	      0.00000000	      0.00000000	    -21.01870507	      6.68864438	    -10.36417768	      9.27491505	     89.95437384	      0.00000000	      0.00000000
      0.86000000	     -0.10827761	     10.78311898	     -5.52634816	      0.19787931	      0.93108195	     -1.50137305	     -9.56022962	    -24.76973198	    -20.55081125	    -40.10419483	     -0.69995024	    -15.44450698	      4.18079712	     -8.92414681	     21.85664077	     -7.46296936	     12.85270469	    -22.93157467	     -0.40023148	     -3.33861669	     11.97394091	     -3.77908600	      1.20162441	    -11.63944559	     10.14406652	      3.50098167	    -13.48552634	    -16.42513305	     37.56364374	     89.95437384	      0.00000000	      0.00000000	    -20.00207817	      7.17552913	    -10.53884605	      9.62207404	     89.95437384	      0.00000000	      0.00000000
      0.87000000	      0.16914889	     11.13852567	     -5.21812256	      0.21049171	      0.93290706	     -1.50406036	     -8.34623351	    -25.37121662	    -19.23468497	    -42.86799934	     -0.74818773	    -16.56905769	      3.01255623	     -8.56376674	     20.55591645	     -8.39067580	     12.28959609	    -22.74042075	     -0.39689522	     -2.00282372	     11.78301420	     -3.65702141	      0.86959165	    -12.07758627	      9.49248824	      3.35364674	    -13.15885515	    -16.34467131	     36.97756716	     89.95437384	      0.00000000	      0.00000000	    -18.79573695	      7.58835408	    -10.76148084	      9.69033595	     89.95437384	      0.00000000	      0.00000000
